<?xml version="1.0" standalone="no"?>
<!DOCTYPE svg PUBLIC "-//W3C//DTD SVG 20010904//EN"
 "http://www.w3.org/TR/2001/REC-SVG-20010904/DTD/svg10.dtd">
<svg version="1.0" xmlns="http://www.w3.org/2000/svg"
 width="700.000000pt" height="700.000000pt" viewBox="0 0 700.000000 700.000000"
 preserveAspectRatio="xMidYMid meet">
<metadata>
Created by potrace 1.14, written by Peter Selinger 2001-2017
</metadata>
<g transform="translate(0.000000,700.000000) scale(0.100000,-0.100000)"
fill="#000000" stroke="none">
<path d="M5965 6158 c-16 -6 -118 -48 -225 -93 -444 -188 -502 -200 -1060
-215 -397 -10 -425 -15 -485 -81 -51 -57 -83 -130 -96 -223 -28 -201 56 -434
178 -491 20 -10 84 -26 142 -36 94 -16 193 -23 567 -45 l102 -6 6 -36 c3 -21
6 -52 6 -70 1 -186 -553 -673 -1035 -911 -327 -162 -902 -291 -1295 -291 -475
0 -1087 171 -1526 425 -310 180 -430 187 -589 34 -36 -34 -73 -80 -84 -103
-48 -97 -54 -480 -12 -678 85 -393 304 -723 658 -991 96 -73 131 -109 147
-151 3 -10 11 -80 16 -156 15 -228 50 -331 160 -478 64 -85 230 -253 330 -333
227 -182 491 -294 836 -353 141 -25 395 -46 543 -46 565 0 1209 181 1696 477
320 194 808 660 1007 960 227 344 405 781 485 1192 23 117 26 163 27 331 1
220 -10 297 -71 485 -93 288 -204 477 -406 694 -113 120 -123 144 -81 178 37
30 140 91 224 133 142 72 251 165 298 255 37 73 42 188 12 286 -58 192 -126
261 -327 330 -62 21 -102 23 -148 7z m130 -312 c42 -18 75 -78 75 -138 0 -91
-61 -139 -312 -244 -254 -106 -268 -123 -248 -302 20 -188 44 -236 213 -429
174 -198 297 -455 341 -712 64 -374 -60 -916 -316 -1383 -202 -369 -483 -682
-849 -945 -320 -229 -559 -347 -944 -463 -274 -83 -343 -92 -748 -97 -568 -9
-731 17 -1007 154 -175 86 -330 191 -426 287 -95 95 -108 126 -69 165 22 23
35 26 109 29 83 4 122 -2 361 -52 201 -43 366 -57 708 -63 532 -9 742 20 1050
143 596 239 1060 695 1395 1369 201 406 362 934 333 1092 -18 97 -92 118 -140
39 -11 -17 -45 -121 -76 -231 -218 -766 -529 -1328 -935 -1690 -252 -225 -702
-442 -1037 -500 -150 -26 -472 -38 -714 -25 -463 23 -682 70 -839 179 -55 38
-103 95 -97 115 5 16 84 40 365 111 290 74 459 124 657 195 783 284 1441 696
1847 1158 302 343 504 697 574 1007 33 145 17 378 -37 538 -24 71 -40 92 -77
102 -15 4 -196 10 -402 13 -419 8 -411 6 -445 78 -10 21 -20 65 -22 98 -4 50
-2 65 14 84 24 30 85 37 418 51 407 17 640 60 870 161 278 121 336 136 410
106z m-1635 -2031 c0 -3 -10 -25 -21 -48 -75 -147 -453 -432 -876 -661 -265
-144 -390 -179 -633 -178 -111 0 -188 6 -270 20 -333 60 -702 220 -1070 465
-243 163 -500 377 -451 377 18 0 177 -59 333 -124 348 -145 612 -218 953 -262
177 -23 551 -23 730 0 386 50 797 174 1114 337 136 70 191 91 191 74z m-3530
-188 c64 -27 130 -70 216 -142 339 -286 875 -571 1334 -710 92 -28 138 -49
124 -57 -33 -20 -1012 -271 -1029 -265 -6 3 -74 49 -151 104 -244 173 -396
348 -509 586 -75 159 -159 447 -142 491 9 24 91 20 157 -7z"/>
</g>
</svg>
