<?xml version="1.0" standalone="no"?>
<!DOCTYPE svg PUBLIC "-//W3C//DTD SVG 20010904//EN"
 "http://www.w3.org/TR/2001/REC-SVG-20010904/DTD/svg10.dtd">
<svg version="1.0" xmlns="http://www.w3.org/2000/svg"
 width="700.000000pt" height="700.000000pt" viewBox="0 0 700.000000 700.000000"
 preserveAspectRatio="xMidYMid meet">
<metadata>
Created by potrace 1.14, written by Peter Selinger 2001-2017
</metadata>
<g transform="translate(0.000000,700.000000) scale(0.100000,-0.100000)"
fill="#000000" stroke="none">
<path d="M5965 6160 c-440 -193 -659 -270 -815 -285 -36 -4 -76 -9 -90 -11
-14 -2 -133 -6 -265 -9 -330 -7 -463 -14 -508 -27 -116 -34 -197 -190 -192
-369 7 -226 93 -384 230 -421 94 -25 251 -44 450 -53 202 -9 309 -16 312 -19
2 -2 6 -31 9 -64 9 -92 -13 -139 -132 -277 -58 -68 -155 -163 -229 -224 -27
-23 -59 -50 -70 -59 -11 -10 -40 -33 -65 -52 -25 -19 -47 -37 -50 -40 -14 -15
-277 -190 -285 -190 -4 0 -20 -9 -35 -20 -58 -41 -289 -150 -400 -188 -143
-49 -359 -105 -530 -137 -14 -3 -36 -7 -50 -10 -42 -8 -131 -19 -235 -30 -38
-4 -81 -9 -95 -11 -37 -5 -268 -4 -320 1 -152 15 -264 33 -415 65 -334 71
-673 198 -937 352 -286 167 -406 185 -548 79 -64 -48 -138 -143 -147 -188 -17
-86 -21 -160 -18 -328 2 -110 6 -211 8 -225 3 -14 8 -41 12 -60 23 -129 62
-246 130 -386 122 -253 268 -422 554 -646 112 -87 129 -114 136 -223 3 -44 7
-111 10 -148 14 -208 101 -364 325 -585 262 -258 533 -403 895 -477 222 -46
374 -60 650 -60 258 0 344 8 591 56 530 102 1016 320 1379 617 271 222 557
517 707 727 204 288 424 807 494 1170 4 22 8 42 9 45 1 3 5 30 9 60 5 30 11
64 13 75 14 54 12 354 -3 435 -8 47 -17 98 -20 114 -3 16 -21 79 -41 140 -91
281 -211 490 -391 678 -88 92 -125 142 -120 165 4 21 100 85 219 148 186 95
283 178 330 280 53 114 41 242 -37 398 -44 88 -95 131 -215 182 -107 45 -168
55 -214 35z m133 -318 c67 -30 94 -139 52 -206 -32 -53 -94 -88 -325 -186 -88
-37 -141 -62 -168 -81 l-32 -21 30 26 c16 14 110 67 208 118 254 130 316 194
271 277 -10 19 -33 43 -50 53 -42 25 -67 19 -357 -86 -128 -46 -243 -86 -257
-89 -14 -3 -36 -8 -50 -11 -48 -12 -193 -36 -209 -35 -9 0 34 11 94 23 156 32
253 62 385 119 284 121 334 133 408 99z m-912 -239 c-9 -10 -196 -31 -196 -22
0 3 42 10 93 16 50 5 96 10 101 11 5 1 6 -1 2 -5z m-211 -22 c-6 -5 -68 -12
-138 -16 -70 -3 -136 -8 -145 -9 -9 -2 -53 -7 -97 -11 -88 -7 -171 -21 -187
-31 -11 -7 -5 -72 13 -124 27 -83 57 -90 444 -106 83 -3 152 -8 155 -11 3 -2
-119 -3 -270 -1 -265 3 -276 4 -306 25 -50 36 -82 170 -53 224 20 38 67 45
384 55 105 3 192 8 194 10 2 2 7 4 10 4 3 0 1 -4 -4 -9z m82 -307 c-3 -3 -12
-4 -19 -1 -8 3 -5 6 6 6 11 1 17 -2 13 -5z m289 -120 c22 -52 44 -175 44 -242
0 -70 -6 -65 -14 13 -11 105 -37 215 -63 267 -7 15 -13 30 -13 35 0 13 30 -35
46 -73z m260 58 c-4 -7 7 -104 18 -162 5 -23 4 -30 -2 -20 -20 31 -37 205 -20
194 5 -3 7 -8 4 -12z m144 -392 c21 -25 51 -58 65 -75 149 -167 266 -388 325
-611 20 -77 23 -98 38 -225 11 -91 4 -248 -14 -344 -2 -10 -6 -35 -9 -55 -23
-155 -92 -397 -162 -570 -204 -502 -537 -919 -995 -1248 -303 -217 -558 -345
-878 -442 -277 -84 -373 -104 -565 -114 -105 -6 -597 -7 -670 -1 -77 6 -178
17 -200 21 -11 3 -42 9 -70 14 -57 12 -198 56 -235 75 -14 7 -59 30 -100 51
-245 122 -478 310 -494 398 -14 79 139 98 369 47 222 -49 338 -68 438 -70 20
-1 37 -5 37 -10 0 -4 -10 -7 -22 -6 -13 1 -65 6 -116 9 -51 4 -103 9 -115 12
-12 2 -39 6 -62 9 -22 3 -83 14 -135 25 -254 51 -370 47 -370 -13 0 -31 153
-176 262 -250 251 -168 524 -269 793 -293 55 -5 502 -5 545 0 19 2 75 7 123
11 49 4 98 8 110 10 12 2 49 6 82 10 32 4 68 9 80 11 11 2 47 9 79 15 67 12
266 69 341 97 28 11 77 30 110 42 87 34 326 154 430 218 164 101 317 214 443
327 308 277 516 553 693 920 173 360 252 657 252 950 -1 235 -44 422 -146 630
-44 90 -163 284 -186 305 -14 12 -122 164 -135 190 -4 8 0 6 9 -5 8 -11 33
-40 55 -65z m-395 -291 c-16 -89 -121 -327 -206 -466 -43 -70 -162 -241 -195
-280 -11 -12 -37 -43 -59 -70 -70 -84 -135 -153 -135 -145 0 5 10 17 21 28 40
35 214 258 281 359 120 181 209 355 261 513 32 96 41 114 32 61z m382 -194
c13 -14 23 -31 22 -38 0 -7 -5 -2 -11 9 -15 32 -54 47 -81 32 -50 -26 -56 -40
-112 -239 -227 -807 -540 -1371 -970 -1745 -198 -173 -544 -354 -839 -438 -92
-27 -109 -31 -185 -42 -25 -4 -55 -8 -66 -10 -89 -17 -500 -23 -720 -11 -164
9 -224 16 -400 43 -151 24 -327 99 -401 171 -26 24 -44 47 -41 49 3 3 36 -17
73 -45 113 -82 247 -126 499 -166 227 -36 791 -41 1005 -9 222 33 399 93 665
226 186 93 301 172 425 293 220 213 347 368 460 560 63 108 191 369 254 520
26 61 51 119 56 130 35 75 101 267 171 495 59 193 93 250 147 244 15 -1 37
-15 49 -29z m-21 -454 c-107 -426 -338 -907 -610 -1271 -39 -52 -86 -113 -106
-135 -78 -88 -138 -151 -189 -199 -30 -28 -64 -60 -75 -71 -48 -45 -167 -135
-266 -200 -245 -161 -581 -304 -795 -339 -77 -12 -305 -22 -295 -13 3 2 50 7
105 11 55 3 111 8 125 11 14 3 39 7 55 10 159 27 376 104 570 203 262 134 501
322 741 583 125 136 318 429 433 654 84 166 195 430 226 535 3 8 23 74 45 145
22 72 46 157 52 190 7 32 14 52 16 43 2 -9 -13 -79 -32 -157z m-1282 -121
c-84 -154 -494 -457 -917 -679 -235 -123 -364 -156 -602 -155 -373 3 -797 152
-1260 444 -83 52 -253 172 -315 223 -140 113 -219 189 -202 195 14 4 148 -44
317 -115 162 -68 267 -108 370 -140 115 -35 303 -83 326 -83 10 0 19 -5 19
-11 0 -6 -8 -8 -17 -5 -10 2 -84 21 -165 41 -147 36 -272 78 -538 178 -169 64
-217 77 -204 54 22 -36 247 -205 447 -334 256 -164 572 -303 867 -381 379
-101 732 -38 1098 195 29 18 55 33 58 33 3 0 78 49 167 108 256 171 433 312
484 385 42 60 19 64 -78 13 -175 -92 -463 -194 -719 -255 -146 -34 -172 -33
-35 3 190 49 288 79 442 137 129 48 182 72 388 178 46 23 83 37 88 32 6 -6 -3
-31 -19 -61z m-3468 -150 c36 -17 103 -63 149 -101 104 -85 246 -190 342 -252
207 -135 538 -306 743 -384 58 -22 114 -44 125 -48 11 -4 25 -9 30 -10 6 -2
55 -17 110 -34 107 -34 153 -55 139 -63 -11 -7 -182 -55 -344 -97 -285 -74
-669 -171 -678 -171 -9 0 -37 19 -207 142 -232 167 -393 374 -507 653 -49 122
-106 359 -94 392 10 26 115 11 192 -27z m3709 -138 l-79 -77 74 80 c41 44 77
79 80 77 2 -1 -32 -37 -75 -80z m-2435 -42 c20 -6 21 -8 5 -8 -11 0 -31 4 -45
8 -20 6 -21 8 -5 8 11 0 31 -4 45 -8z m1160 6 c0 -2 -13 -6 -29 -8 -17 -2 -28
-1 -25 4 5 8 54 12 54 4z m-1080 -22 c0 -2 -11 -4 -25 -4 -14 0 -25 4 -25 9 0
4 11 6 25 3 14 -2 25 -6 25 -8z m1010 12 c0 -2 -9 -6 -20 -9 -11 -3 -18 -1
-14 4 5 9 34 13 34 5z m-920 -23 c2 -2 -13 -3 -34 -1 -20 1 -39 5 -42 9 -4 7
68 0 76 -8z m847 11 c-3 -3 -12 -4 -19 -1 -8 3 -5 6 6 6 11 1 17 -2 13 -5z
m-801 -22 c-10 -2 -22 0 -28 6 -6 6 0 7 19 4 21 -5 23 -7 9 -10z m151 -8 c-3
-3 -12 -4 -19 -1 -8 3 -5 6 6 6 11 1 17 -2 13 -5z m1982 4 c-2 -2 -24 -21 -49
-43 l-45 -40 40 43 c21 23 43 42 49 42 5 0 7 -1 5 -2z m-144 -124 c-119 -108
-368 -283 -565 -398 -63 -37 -122 -71 -130 -77 -103 -63 -537 -259 -675 -304
-22 -7 -85 -29 -139 -49 -55 -20 -102 -34 -104 -31 -3 2 1 6 9 9 259 81 717
286 999 446 202 115 496 316 605 413 22 20 42 36 45 36 3 0 -17 -20 -45 -45z
m-1626 -868 c-19 -17 -846 -256 -886 -256 -35 0 4 20 87 45 68 21 363 96 431
110 32 7 227 65 294 87 62 21 87 26 74 14z m-91 -743 c-15 -2 -42 -2 -60 0
-18 2 -6 4 27 4 33 0 48 -2 33 -4z"/>
<path d="M800 3610 c-8 -15 -6 -39 10 -97 46 -182 94 -304 173 -444 103 -183
224 -315 453 -492 125 -97 142 -108 169 -102 39 8 41 9 165 40 58 14 114 28
125 30 11 3 119 32 240 66 121 33 225 61 230 63 6 1 36 10 67 19 100 30 90 43
-77 100 -164 57 -205 73 -336 135 -255 120 -569 312 -949 583 -152 108 -247
143 -270 99z"/>
</g>
</svg>
