<?xml version="1.0" encoding="UTF-8"?>
<svg xmlns="http://www.w3.org/2000/svg" xmlns:xlink="http://www.w3.org/1999/xlink" width="100" height="100" viewBox="0 0 100 100" >
<rect x="0" y="0" width="100" height="100" fill="rgb(13.333333%, 13.333333%, 13.333333%)" fill-opacity="1" stroke="rgb(94.901961%, 94.901961%, 94.901961%)" stroke-width="0.1" stroke-opacity="1" />
<path fill="none" stroke-width="0.1" stroke-linecap="butt" stroke-linejoin="miter" stroke="rgb(94.901961%, 94.901961%, 94.901961%)" stroke-opacity="1" stroke-miterlimit="10" d="M 99.449219 78.953125 L 99.722656 99.570312 L 79.109375 99.84375 L 78.835938 79.226562 Z M 99.449219 78.953125 "/>
<path fill="none" stroke-width="0.1" stroke-linecap="butt" stroke-linejoin="miter" stroke="rgb(94.901961%, 94.901961%, 94.901961%)" stroke-opacity="1" stroke-miterlimit="10" d="M 0.0898438 2.070312 L 20.648438 0.53125 L 22.1875 21.089844 L 1.628906 22.628906 Z M 0.0898438 2.070312 "/>
<path fill="none" stroke-width="0.1" stroke-linecap="butt" stroke-linejoin="miter" stroke="rgb(94.901961%, 94.901961%, 94.901961%)" stroke-opacity="1" stroke-miterlimit="10" d="M 79.386719 23.675781 L 79.097656 3.0625 L 99.714844 2.777344 L 100 23.390625 Z M 79.386719 23.675781 "/>
<path fill="none" stroke-width="0.1" stroke-linecap="butt" stroke-linejoin="miter" stroke="rgb(94.901961%, 94.901961%, 94.901961%)" stroke-opacity="1" stroke-miterlimit="10" d="M 15.496094 29.285156 L 29.09375 44.78125 L 13.597656 58.378906 L 0 42.882812 Z M 15.496094 29.285156 "/>
<path fill="none" stroke-width="0.1" stroke-linecap="butt" stroke-linejoin="miter" stroke="rgb(94.901961%, 94.901961%, 94.901961%)" stroke-opacity="1" stroke-miterlimit="10" d="M 0 79.382812 L 0 58.765625 L 20.617188 58.765625 L 20.617188 79.382812 Z M 0 79.382812 "/>
<path fill="none" stroke-width="0.1" stroke-linecap="butt" stroke-linejoin="miter" stroke="rgb(94.901961%, 94.901961%, 94.901961%)" stroke-opacity="1" stroke-miterlimit="10" d="M 64.523438 70.925781 L 49.542969 85.089844 L 35.378906 70.109375 L 50.359375 55.945312 Z M 64.523438 70.925781 "/>
<path fill="none" stroke-width="0.1" stroke-linecap="butt" stroke-linejoin="miter" stroke="rgb(94.901961%, 94.901961%, 94.901961%)" stroke-opacity="1" stroke-miterlimit="10" d="M 0.0625 100 L 0.0625 79.382812 L 20.679688 79.382812 L 20.679688 100 Z M 0.0625 100 "/>
<path fill="none" stroke-width="0.1" stroke-linecap="butt" stroke-linejoin="miter" stroke="rgb(94.901961%, 94.901961%, 94.901961%)" stroke-opacity="1" stroke-miterlimit="10" d="M 55.828125 79.164062 L 76.261719 76.441406 L 78.984375 96.878906 L 58.546875 99.597656 Z M 55.828125 79.164062 "/>
<path fill="none" stroke-width="0.1" stroke-linecap="butt" stroke-linejoin="miter" stroke="rgb(94.901961%, 94.901961%, 94.901961%)" stroke-opacity="1" stroke-miterlimit="10" d="M 71.191406 66.960938 L 83.335938 50.300781 L 99.996094 62.449219 L 87.847656 79.105469 Z M 71.191406 66.960938 "/>
<path fill="none" stroke-width="0.1" stroke-linecap="butt" stroke-linejoin="miter" stroke="rgb(94.901961%, 94.901961%, 94.901961%)" stroke-opacity="1" stroke-miterlimit="10" d="M 79.382812 27.921875 L 100 27.921875 L 100 48.539062 L 79.382812 48.539062 Z M 79.382812 27.921875 "/>
<path fill="none" stroke-width="0.1" stroke-linecap="butt" stroke-linejoin="miter" stroke="rgb(94.901961%, 94.901961%, 94.901961%)" stroke-opacity="1" stroke-miterlimit="10" d="M 64.40625 41.261719 L 81.039062 53.445312 L 68.855469 70.074219 L 52.222656 57.890625 Z M 64.40625 41.261719 "/>
<path fill="none" stroke-width="0.1" stroke-linecap="butt" stroke-linejoin="miter" stroke="rgb(94.901961%, 94.901961%, 94.901961%)" stroke-opacity="1" stroke-miterlimit="10" d="M 34.816406 99.671875 L 20.726562 84.625 L 35.773438 70.53125 L 49.867188 85.582031 Z M 34.816406 99.671875 "/>
<path fill="none" stroke-width="0.1" stroke-linecap="butt" stroke-linejoin="miter" stroke="rgb(94.901961%, 94.901961%, 94.901961%)" stroke-opacity="1" stroke-miterlimit="10" d="M 14.546875 28.203125 L 30.042969 14.605469 L 43.640625 30.101562 L 28.144531 43.699219 Z M 14.546875 28.203125 "/>
<path fill="none" stroke-width="0.1" stroke-linecap="butt" stroke-linejoin="miter" stroke="rgb(94.901961%, 94.901961%, 94.901961%)" stroke-opacity="1" stroke-miterlimit="10" d="M 35.320312 0 L 55.9375 0 L 55.9375 20.617188 L 35.320312 20.617188 Z M 35.320312 0 "/>
<path fill="none" stroke-width="0.1" stroke-linecap="butt" stroke-linejoin="miter" stroke="rgb(94.901961%, 94.901961%, 94.901961%)" stroke-opacity="1" stroke-miterlimit="10" d="M 49.589844 28.359375 L 61.535156 45.164062 L 44.730469 57.105469 L 32.785156 40.300781 Z M 49.589844 28.359375 "/>
<path fill="none" stroke-width="0.1" stroke-linecap="butt" stroke-linejoin="miter" stroke="rgb(94.901961%, 94.901961%, 94.901961%)" stroke-opacity="1" stroke-miterlimit="10" d="M 79.382812 41.226562 L 58.765625 41.269531 L 58.726562 20.652344 L 79.34375 20.609375 Z M 79.382812 41.226562 "/>
<path fill="none" stroke-width="0.1" stroke-linecap="butt" stroke-linejoin="miter" stroke="rgb(94.901961%, 94.901961%, 94.901961%)" stroke-opacity="1" stroke-miterlimit="10" d="M 17.75 54.734375 L 34.554688 42.789062 L 46.5 59.59375 L 29.695312 71.539062 Z M 17.75 54.734375 "/>
<path fill="none" stroke-width="0.1" stroke-linecap="butt" stroke-linejoin="miter" stroke="rgb(94.901961%, 94.901961%, 94.901961%)" stroke-opacity="1" stroke-miterlimit="10" d="M 76.554688 20.617188 L 55.9375 20.617188 L 55.9375 0.00390625 L 76.550781 0 Z M 76.554688 20.617188 "/>
</svg>
