<?xml version="1.0" encoding="UTF-8" standalone="no"?>
<svg
   version="1.0"
   width="1159.1941pt"
   height="433.2973pt"
   viewBox="0 0 1159.1941 433.2973"
   preserveAspectRatio="xMidYMid"
   id="svg20"
   sodipodi:docname="banan-full-yellow.svg"
   inkscape:version="1.2.2 (b0a8486541, 2022-12-01)"
   xmlns:inkscape="http://www.inkscape.org/namespaces/inkscape"
   xmlns:sodipodi="http://sodipodi.sourceforge.net/DTD/sodipodi-0.dtd"
   xmlns="http://www.w3.org/2000/svg"
   xmlns:svg="http://www.w3.org/2000/svg">
  <defs
     id="defs24" />
  <sodipodi:namedview
     id="namedview22"
     pagecolor="#ffffff"
     bordercolor="#000000"
     borderopacity="0.25"
     inkscape:showpageshadow="2"
     inkscape:pageopacity="0.0"
     inkscape:pagecheckerboard="0"
     inkscape:deskcolor="#d1d1d1"
     inkscape:document-units="pt"
     showgrid="false"
     inkscape:zoom="0.74599766"
     inkscape:cx="795.5789"
     inkscape:cy="309.65245"
     inkscape:window-width="1920"
     inkscape:window-height="990"
     inkscape:window-x="1080"
     inkscape:window-y="898"
     inkscape:window-maximized="1"
     inkscape:current-layer="svg20" />
  <metadata
     id="metadata2">
Created by potrace 1.16, written by Peter Selinger 2001-2019
</metadata>
  <g
     id="g255"
     transform="translate(-302.13828,-505.00003)">
    <g
       transform="matrix(0.2006006,0,0,-0.2006006,-303.95293,1899.1742)"
       fill="#000000"
       stroke="none"
       id="g18">
      <path
         d="m 5380,5870 c 0,-713 3,-1080 10,-1080 7,0 10,367 10,1080 0,713 -3,1080 -10,1080 -7,0 -10,-367 -10,-1080 z"
         id="path4"
         style="fill:#ffffff" />
      <path
         d="m 4525,6534 c -138,-60 -161,-65 -302,-67 -134,-2 -135,-2 -159,-30 -42,-49 -26,-169 28,-198 13,-8 70,-16 128,-19 l 105,-5 3,-28 c 7,-56 -183,-218 -329,-279 -89,-37 -242,-68 -338,-68 -136,1 -317,51 -433,121 -87,53 -126,55 -171,11 -29,-29 -32,-38 -35,-108 -8,-158 62,-301 197,-399 43,-31 44,-34 46,-91 2,-76 27,-124 102,-195 99,-95 206,-135 388,-146 172,-10 369,40 527,134 88,53 229,185 286,270 89,132 152,317 152,446 0,114 -58,253 -134,326 -20,19 -36,40 -36,47 0,6 29,26 64,43 100,49 125,103 87,187 -14,31 -28,45 -60,57 -51,21 -44,22 -116,-9 z m 106,-90 c 13,-36 -6,-56 -79,-85 -84,-33 -85,-35 -78,-98 6,-46 13,-62 50,-101 81,-86 123,-206 112,-315 -22,-213 -138,-418 -312,-548 -105,-79 -179,-117 -299,-152 -78,-24 -109,-27 -230,-28 -159,-1 -215,11 -311,69 -58,34 -104,76 -104,95 0,24 48,27 126,7 109,-28 350,-31 443,-5 202,55 364,197 470,410 55,109 105,267 99,314 -5,43 -40,38 -51,-7 -65,-253 -163,-432 -298,-543 -65,-52 -174,-104 -258,-123 -90,-20 -304,-15 -396,10 -52,14 -95,44 -95,65 0,3 46,17 103,30 266,61 528,195 680,347 123,123 207,277 207,378 -1,50 -15,115 -29,129 -6,6 -56,9 -125,8 -108,-2 -115,-1 -126,19 -6,12 -10,31 -8,43 3,21 9,22 93,24 133,3 218,18 288,51 81,39 114,41 128,6 z m -498,-583 c -30,-48 -180,-151 -296,-205 -129,-59 -320,-16 -517,117 -66,45 -131,99 -126,105 3,2 47,-14 98,-36 160,-70 327,-95 493,-73 99,13 235,55 305,94 59,33 65,33 43,-2 z m -946,-61 c 96,-85 265,-176 386,-210 26,-7 45,-15 43,-18 -3,-3 -71,-21 -150,-41 l -144,-37 -58,41 c -89,62 -146,154 -170,273 -6,31 -5,32 24,29 17,-2 48,-19 69,-37 z"
         id="path6" />
      <path
         d="m 6210,5870 v -292 l 188,4 c 166,3 192,5 227,24 100,52 99,204 -2,255 l -32,16 36,35 c 68,68 53,177 -31,220 -36,19 -61,22 -213,26 l -173,4 z m 338,226 c 42,-21 62,-53 62,-96 0,-78 -85,-114 -252,-108 l -83,3 -3,99 c -1,55 0,106 3,114 8,21 228,11 273,-12 z m 14,-258 c 52,-15 78,-50 78,-102 0,-91 -56,-118 -240,-114 l -125,3 -3,99 c -1,55 0,106 2,113 7,17 232,18 288,1 z"
         id="path8"
         style="fill:#ffffff" />
      <path
         d="m 6905,6006 c -61,-19 -85,-35 -85,-56 0,-29 13,-31 51,-8 26,16 51,21 106,22 83,1 106,-13 124,-75 19,-63 12,-69 -87,-69 -140,0 -198,-28 -210,-102 -9,-55 16,-101 70,-126 69,-33 142,-26 207,19 28,20 39,16 39,-13 0,-13 7,-18 25,-18 h 25 v 129 c 0,153 -14,223 -51,260 -47,48 -134,62 -214,37 z m 203,-261 c 13,-110 -155,-180 -230,-96 -32,36 -35,57 -12,89 24,35 50,41 149,39 l 90,-2 z"
         id="path10"
         style="fill:#ffffff" />
      <path
         d="m 7337,6013 c -4,-3 -7,-102 -7,-220 v -213 h 30 30 v 135 c 0,155 11,193 62,225 42,25 142,28 176,4 44,-31 52,-63 52,-219 v -145 h 31 31 l -4,158 c -3,153 -4,160 -30,200 -61,91 -192,108 -278,35 -35,-29 -50,-23 -50,18 0,21 -5,29 -18,29 -10,0 -22,-3 -25,-7 z"
         id="path12"
         style="fill:#ffffff" />
      <path
         d="m 7972,6006 c -23,-8 -54,-21 -67,-30 -21,-14 -24,-20 -15,-36 11,-20 11,-20 53,2 54,28 151,31 190,6 28,-19 54,-85 44,-112 -5,-13 -24,-16 -102,-16 -107,0 -150,-13 -183,-55 -41,-52 -21,-140 39,-171 17,-8 54,-18 83,-21 43,-4 60,0 109,25 l 57,29 v -24 c 0,-18 5,-23 25,-23 h 25 v 155 c 0,179 -11,222 -66,256 -44,27 -134,34 -192,15 z m 206,-267 c 3,-42 -30,-89 -81,-115 -47,-25 -115,-14 -149,25 -32,36 -35,57 -12,89 24,35 50,41 149,39 l 90,-2 z"
         id="path14"
         style="fill:#ffffff" />
      <path
         d="m 8400,5800 v -220 h 24 c 24,0 24,0 28,138 4,149 14,183 70,225 37,27 133,29 172,4 46,-31 56,-71 56,-227 v -140 h 25 25 v 158 c 0,144 -2,160 -23,197 -28,50 -93,85 -157,85 -48,0 -116,-26 -139,-53 -21,-26 -31,-20 -31,18 0,31 -3,35 -25,35 h -25 z"
         id="path16"
         style="fill:#ffffff" />
    </g>
    <path
       style="fill:#ffd400;stroke-width:0.504194"
       d="m 440.99092,872.14513 c -19.88476,-0.8426 -31.29592,-4.39452 -48.00944,-14.94368 -12.59498,-7.94966 -20.09518,-15.67572 -18.19352,-18.74148 1.59066,-2.56438 9.50712,-3.0665 18.3047,-1.16102 2.6344,0.57058 6.94524,1.49934 9.57966,2.0639 11.47756,2.4597 25.92032,3.61126 45.55668,3.63228 23.3255,0.025 34.3213,-1.26926 47.13192,-5.5475 29.51516,-9.85692 53.7419,-28.38718 72.97332,-55.81502 15.63162,-22.29382 31.21836,-59.80514 34.06578,-81.98344 0.89312,-6.95618 -0.77212,-11.48644 -4.22222,-11.48644 -3.66854,0 -4.73148,1.88354 -8.44598,14.96642 -6.8295,24.0543 -14.49604,43.35444 -23.59604,59.40192 -3.41964,6.03036 -11.15778,17.58238 -15.02914,22.43652 -4.56292,5.7213 -16.14698,17.21644 -20.99604,20.83492 -13.36456,9.97296 -35.55486,20.2106 -50.2969,23.2048 -8.38604,1.70328 -14.32658,2.09346 -31.76412,2.08638 -28.43112,-0.012 -44.4816,-2.21376 -55.40352,-7.60164 -4.9342,-2.4341 -10.14144,-6.7745 -10.14144,-8.45324 0,-1.33682 2.16088,-2.03856 21.19718,-6.88374 29.31098,-7.46034 48.76722,-14.42806 71.82626,-25.72272 27.55174,-13.4952 51.3795,-30.2781 67.59628,-47.61082 19.17032,-20.4895 32.94124,-44.00346 36.77468,-62.79296 2.43358,-11.92796 -1.29582,-34.67316 -5.90288,-36.0013 -2.62446,-0.75654 -17.52158,-1.29328 -28.13328,-1.0136 -13.54618,0.35704 -17.59856,-0.0816 -19.7443,-2.13742 -2.66662,-2.55478 -3.91342,-9.95852 -2.062,-12.24472 1.33132,-1.64398 3.76366,-1.9694 18.89888,-2.52852 28.93424,-1.06884 41.45518,-3.4097 58.13568,-10.86878 14.54144,-6.50258 19.87164,-6.94588 22.98314,-1.91144 1.62184,2.62418 1.64636,6.83586 0.0526,9.06996 -1.7234,2.41614 -6.64686,5.38094 -13.7034,8.25186 -12.90158,5.24898 -15.7299,6.89166 -16.96812,9.85516 -0.8958,2.14398 -0.88676,5.74844 0.0296,11.8276 1.31358,8.71404 2.53038,11.1375 9.60348,19.12732 6.55182,7.4009 10.40578,12.97802 14.11254,20.4224 3.67022,7.37094 5.7138,13.1584 7.38838,20.92396 1.637,7.59102 1.63698,21.6987 0,30.75574 -7.58396,41.96056 -29.5947,77.34442 -63.82686,102.60632 -10.71038,7.9038 -22.01438,14.8545 -30.47594,18.73928 -12.93946,5.94058 -32.29022,12.12288 -43.91858,14.0313 -4.06104,0.66652 -28.62388,1.86084 -34.28504,1.66708 -0.97058,-0.0332 -5.96208,-0.23826 -11.09222,-0.45564 z"
       id="path369" />
    <path
       style="fill:#ffd400;stroke-width:0.504194"
       d="m 430.15078,768.99344 c -24.3316,-3.10611 -51.436,-15.45424 -78.3249,-35.68296 -7.30306,-5.49414 -15.1496,-12.47702 -14.32798,-12.75092 0.68626,-0.22872 8.31176,2.60114 19.29292,7.15974 20.03612,8.31758 35.81848,12.56636 55.71324,14.9986 6.81772,0.83352 31.7984,0.83554 38.57068,0.004 12.92182,-1.58824 26.90012,-4.72856 39.94614,-8.97406 11.03326,-3.59056 15.45112,-5.4098 25.95164,-10.68674 5.3242,-2.6756 9.8277,-4.7174 10.0078,-4.53732 0.55548,0.5555 -2.4136,5.47866 -5.03976,8.35666 -6.5183,7.14338 -23.3329,19.25636 -40.01512,28.82628 -14.44726,8.28784 -23.1867,11.85442 -32.07804,13.0911 -3.62724,0.5045 -16.29408,0.63086 -19.69662,0.1966 z"
       id="path371" />
    <path
       style="fill:#ffd400;stroke-width:0.504194"
       d="m 355.03286,791.47696 c -3.8786,-2.76872 -8.84156,-6.55712 -11.0288,-8.4187 -7.43876,-6.33115 -15.12886,-16.64418 -19.63004,-26.32541 -4.00846,-8.6215 -8.65238,-25.09104 -7.74308,-27.46066 0.28988,-0.75534 0.83324,-0.85946 3.57524,-0.68484 4.14502,0.26392 9.23604,2.7756 14.73062,7.26734 14.1393,11.55874 26.68938,19.72706 43.28218,28.1705 12.32252,6.27048 21.8044,10.10774 36.1788,14.64132 3.25998,1.02814 6.04684,2.06286 6.19298,2.29932 0.1462,0.23644 -1.61362,0.99842 -3.9105,1.69328 -5.48982,1.66082 -53.11746,13.91264 -53.9506,13.87838 -0.35466,-0.016 -3.8182,-2.29182 -7.6968,-5.06053 z"
       id="path373" />
  </g>
</svg>
